<?xml version="1.0" encoding="UTF-8" standalone="no"?>
<!-- Created with Inkscape (http://www.inkscape.org/) -->

<svg
   version="1.1"
   id="svg1"
   width="500"
   height="500"
   viewBox="0 0 500 500"
   sodipodi:docname="new.svg"
   inkscape:version="1.3 (0e150ed6c4, 2023-07-21)"
   xmlns:inkscape="http://www.inkscape.org/namespaces/inkscape"
   xmlns:sodipodi="http://sodipodi.sourceforge.net/DTD/sodipodi-0.dtd"
   xmlns="http://www.w3.org/2000/svg"
   xmlns:svg="http://www.w3.org/2000/svg">
  <defs
     id="defs1" />
  <sodipodi:namedview
     id="namedview1"
     pagecolor="#ffffff"
     bordercolor="#000000"
     borderopacity="0.25"
     inkscape:showpageshadow="2"
     inkscape:pageopacity="0.0"
     inkscape:pagecheckerboard="0"
     inkscape:deskcolor="#d1d1d1"
     inkscape:zoom="0.3885"
     inkscape:cx="310.16731"
     inkscape:cy="235.52124"
     inkscape:window-width="1920"
     inkscape:window-height="991"
     inkscape:window-x="-9"
     inkscape:window-y="-9"
     inkscape:window-maximized="1"
     inkscape:current-layer="g1" />
  <g
     inkscape:groupmode="layer"
     inkscape:label="Image"
     id="g1"
     style="display:inline">
    <path
       style="fill:#000000;stroke-width:1.0869"
       d="M 129.46113,440.14431 C 113.73471,421.41201 75.417636,361.50772 59.422426,330.64695 l -7.17937,-13.85173 3.65985,-3.11155 c 7.35036,-6.24913 21.61902,-15.26591 23.20865,-14.66621 1.73273,0.65371 8.28086,16.55381 26.627544,64.65675 12.13791,31.82425 30.00786,80.08044 30.00786,81.03355 0,1.75288 -2.51739,-0.0747 -6.28583,-4.56345 z m 194.649,4.59085 c -0.93942,-0.93257 1.24726,-7.10451 19.09486,-53.8955 28.1177,-73.71604 35.47591,-92.14311 36.79418,-92.14311 1.45109,0 13.5172,7.41697 19.74756,12.13871 7.20178,5.45793 7.18508,5.64751 -2.08878,23.74527 -12.35461,24.10984 -27.73737,48.84547 -52.21562,83.96326 -13.13948,18.85057 -20.1081,27.40655 -21.3322,26.19137 z m -191.04887,-19.0716 c -5.97914,-15.12279 -22.35945,-58.9305 -25.31158,-67.69367 -1.09824,-3.26003 -1.90475,-7.11562 -1.79224,-8.56798 0.28272,-3.64945 33.26768,-100.09028 38.17545,-111.61668 2.94537,-6.91748 5.44364,-10.82111 9.58292,-14.97358 9.43919,-9.46931 67.41111,-46.48849 71.57419,-45.7052 1.71333,0.32236 2.10141,2.00796 2.81253,12.21623 0.45372,6.51325 0.70036,20.54259 0.54809,31.17633 l -0.27686,19.33406 -11.50984,8.8283 c -12.31305,9.44438 -34.92439,31.52792 -42.64824,41.65274 l -4.70418,6.16647 2.51804,4.07165 c 8.84707,14.30566 22.57403,24.82074 39.90159,30.56527 9.73083,3.22603 30.59458,3.64567 39.46231,0.79372 16.96392,-5.45576 30.44633,-14.87876 38.66731,-27.02498 l 2.74011,-4.04844 -3.82295,-5.65084 c -8.92767,-13.19631 -31.7808,-35.73532 -49.36835,-48.68979 l -8.49536,-6.25742 V 210.8038 c 0,-17.14395 0.46075,-30.62739 1.10338,-32.28913 l 1.10338,-2.85319 7.36568,4.04968 c 18.80025,10.33648 56.96877,35.37681 65.90266,43.23523 l 5.86796,5.16158 9.70075,28.01984 c 5.3354,15.41089 14.72401,42.93909 20.86357,61.17373 l 11.16285,33.15392 -2.39389,7.16937 c -8.03597,24.06657 -30.78125,81.30487 -32.01174,80.55721 -0.49626,-0.30154 -0.85221,-13.98671 -0.791,-30.4115 0.0974,-26.14375 -0.18178,-31.46468 -2.24174,-42.72092 -2.40709,-13.15309 -8.54849,-32.71751 -13.89359,-44.26028 l -2.99429,-6.46618 -1.34318,7.54388 c -3.58388,20.12854 -17.03518,37.99099 -35.61172,47.29004 -12.87205,6.4435 -18.16097,7.68591 -32.33717,7.59626 -10.13731,-0.0641 -13.43431,-0.54262 -20.69904,-3.00416 -26.71233,-9.05103 -46.28198,-32.93029 -48.03871,-58.61775 -0.13174,-1.92639 -0.56194,-3.50252 -0.956,-3.50252 -1.57847,0 -12.08398,28.31303 -15.19535,40.9525 -4.94056,20.0702 -5.4999,25.88148 -5.52364,57.38738 -0.012,15.85562 -0.4442,28.8284 -0.96056,28.8284 -0.51638,0 -3.27557,-5.91014 -6.13155,-13.13363 z m -32.13475,-86.01015 c -1.552094,-2.44342 -16.679624,-40.31815 -17.461854,-43.71919 -0.39879,-1.73386 4.16374,-6.95474 20.719574,-23.70934 11.67701,-11.81723 24.11926,-24.15316 27.64943,-27.4132 l 6.41846,-5.92733 -0.79323,4.31079 c -0.83814,4.55474 -24.96428,76.03605 -30.4633,90.25714 -1.77629,4.59369 -3.56107,8.35216 -3.96616,8.35216 -0.40509,0 -1.35141,-0.96797 -2.10292,-2.15103 z m 253.47814,0.8039 c -0.27969,-0.74091 -8.14866,-23.65545 -17.4866,-50.92119 -10.40487,-30.38105 -16.51241,-49.72894 -15.77529,-49.97408 1.35666,-0.45117 20.42444,17.85887 41.63289,39.97846 l 14.18214,14.79141 -1.78143,4.06829 c -0.97978,2.23756 -4.46571,11.03921 -7.74651,19.55924 -8.48166,22.02636 -11.33969,26.96291 -13.0252,22.49787 z M 55.210866,304.8933 c 1.83658,-8.51908 15.39561,-39.74703 28.19286,-64.93125 28.401264,-55.89202 63.493824,-105.36472 109.186504,-153.928639 19.23369,-20.442302 32.71775,-32.725082 34.26054,-31.208302 0.65063,0.639665 1.34619,18.206165 1.74843,44.156808 l 0.66797,43.094543 -59.09208,59.00641 C 92.243116,278.90186 60.776806,308.39582 55.685866,308.39582 c -0.81188,0 -0.97337,-1.19076 -0.475,-3.50252 z m 340.314964,-1.44132 c -3.55988,-2.28837 -38.33523,-35.72538 -85.21298,-81.93355 l -79.19865,-78.06742 0.0121,-40.6545 c 0.0122,-41.134332 0.41133,-48.737244 2.55845,-48.737244 1.93807,0 39.80377,38.237091 52.29429,52.807174 46.83597,54.6338 80.30951,107.65069 106.52321,168.71625 11.55509,26.91787 13.04426,31.73543 9.81002,31.73543 -0.42463,0 -3.47851,-1.73976 -6.7864,-3.86614 z M 254.68197,184.30404 c -12.05793,-7.15549 -22.28591,-13.56349 -22.72886,-14.24 -1.24805,-1.90616 -0.98663,-17.71736 0.30591,-18.50273 1.53027,-0.92982 8.09007,5.06445 28.72595,26.24947 15.8968,16.31984 18.69967,19.65115 16.44263,19.54273 -0.45217,-0.0218 -10.68771,-5.89398 -22.74563,-13.04947 z m -72.89565,11.16904 c 0,-1.47319 42.87276,-44.42106 44.34337,-44.42106 2.67056,0 3.94375,17.14236 1.42194,19.14515 -3.02998,2.40638 -43.52557,26.11814 -44.60527,26.11814 -0.63802,0 -1.16004,-0.37901 -1.16004,-0.84223 z"
       id="path1" />
    <path
       style="fill:#000080"
       id="path4"
       sodipodi:type="arc"
       sodipodi:cx="151.52289"
       sodipodi:cy="125.13151"
       sodipodi:rx="115.12099"
       sodipodi:ry="82.359283"
       sodipodi:start="0"
       sodipodi:end="0.00035208764"
       sodipodi:arc-type="arc"
       d="m 266.64388,125.13151 a 115.12099,82.359283 0 0 1 -1e-5,0.029"
       sodipodi:open="true" />
  </g>
</svg>
